<svg width="15" height="15" viewBox="0 0 15 15" fill="none" xmlns="http://www.w3.org/2000/svg">
<g id="envelope-regular 1">
<path id="Vector" d="M1.875 3.28125C1.61719 3.28125 1.40625 3.49219 1.40625 3.75V4.39746L6.45996 8.5459C7.06641 9.04395 7.93652 9.04395 8.54297 8.5459L13.5938 4.39746V3.75C13.5938 3.49219 13.3828 3.28125 13.125 3.28125H1.875ZM1.40625 6.2168V11.25C1.40625 11.5078 1.61719 11.7188 1.875 11.7188H13.125C13.3828 11.7188 13.5938 11.5078 13.5938 11.25V6.2168L9.43359 9.63281C8.30859 10.5557 6.68848 10.5557 5.56641 9.63281L1.40625 6.2168ZM0 3.75C0 2.71582 0.84082 1.875 1.875 1.875H13.125C14.1592 1.875 15 2.71582 15 3.75V11.25C15 12.2842 14.1592 13.125 13.125 13.125H1.875C0.84082 13.125 0 12.2842 0 11.25V3.75Z" fill="white"/>
</g>
</svg>
