<svg width="19" height="19" viewBox="0 0 19 19" fill="none" xmlns="http://www.w3.org/2000/svg">
<g id="Group">
<path id="Shape" fill-rule="evenodd" clip-rule="evenodd" d="M18.1351 9.58242C18.1351 8.93537 18.077 8.31322 17.9692 7.71594H9.37506V11.2457H14.286C14.0744 12.3863 13.4315 13.3527 12.4651 13.9998V16.2893H15.4142C17.1396 14.7007 18.1351 12.3614 18.1351 9.58242Z" fill="#401111"/>
<path id="Shape_2" fill-rule="evenodd" clip-rule="evenodd" d="M9.37509 18.5C11.8388 18.5 13.9044 17.6829 15.4142 16.2893L12.4651 13.9997C11.648 14.5472 10.6028 14.8708 9.37509 14.8708C6.99844 14.8708 4.98679 13.2656 4.26924 11.1088H1.22066V13.473C2.72214 16.4552 5.80805 18.5 9.37509 18.5Z" fill="#401111"/>
<path id="Shape_3" fill-rule="evenodd" clip-rule="evenodd" d="M4.26915 11.1087C4.08665 10.5612 3.98296 9.97642 3.98296 9.37499C3.98296 8.77357 4.08665 8.18874 4.26915 7.64124V5.27704H1.22057C0.602557 6.50891 0.25 7.90255 0.25 9.37499C0.25 10.8474 0.602557 12.2411 1.22057 13.473L4.26915 11.1087Z" fill="#401111"/>
<path id="Shape_4" fill-rule="evenodd" clip-rule="evenodd" d="M9.37509 3.87926C10.7148 3.87926 11.9176 4.33966 12.8633 5.24387L15.4805 2.62665C13.9003 1.1542 11.8347 0.25 9.37509 0.25C5.80805 0.25 2.72214 2.29483 1.22066 5.27705L4.26924 7.64125C4.98679 5.48443 6.99844 3.87926 9.37509 3.87926Z" fill="#401111"/>
</g>
</svg>
