<svg width="15" height="15" viewBox="0 0 15 15" fill="none" xmlns="http://www.w3.org/2000/svg">
<g id="phone-solid 1" clip-path="url(#clip0_8_99)">
<path id="Vector" d="M4.83105 0.720936C4.60547 0.176015 4.01074 -0.114024 3.44238 0.041249L0.864258 0.744374C0.354492 0.884999 0 1.34789 0 1.87523C0 9.12328 5.87695 15.0002 13.125 15.0002C13.6523 15.0002 14.1152 14.6457 14.2559 14.136L14.959 11.5579C15.1143 10.9895 14.8242 10.3948 14.2793 10.1692L11.4668 8.9973C10.9893 8.79809 10.4355 8.93578 10.1104 9.33715L8.92676 10.7815C6.86426 9.8059 5.19434 8.13598 4.21875 6.07348L5.66309 4.89281C6.06445 4.56469 6.20215 4.01391 6.00293 3.53637L4.83105 0.723866V0.720936Z" fill="white"/>
</g>
<defs>
<clipPath id="clip0_8_99">
<rect width="15" height="15" fill="white"/>
</clipPath>
</defs>
</svg>
